<svg width="166" height="34" viewBox="0 0 166 34" fill="none" xmlns="http://www.w3.org/2000/svg">
    <path d="M31.5101 2.49046C33.1092 4.08957 33.9394 6.0927 34 8.49986V25.5001C33.9394 27.9067 33.1092 29.9104 31.5101 31.5095C29.9109 33.1086 27.9072 33.9388 25.5 34H8.5C6.0928 33.9388 4.08963 33.1086 2.4905 31.5095C0.891367 29.9104 0.0612 27.9067 0 25.5001V8.49986C0.0612 6.0927 0.891367 4.08957 2.4905 2.49046C4.08963 0.891352 6.0928 0.061199 8.5 0H25.5C27.9072 0.061199 29.9109 0.891352 31.5101 2.49046Z" fill="#3C5AFD"/>
    <path d="M25.102 19.2169C24.4993 22.5267 21.6601 25.2344 17.2804 25.2344C12.0486 25.2344 8.89856 21.3871 8.89856 17.0022C8.89856 12.7055 11.8926 8.76562 17.2347 8.76562C21.8172 8.76562 24.6564 11.6517 25.0797 15.2536H21.3026C20.9684 13.4193 19.5816 12.0331 17.2804 12.0331C14.2841 12.0331 12.5866 14.405 12.5866 17.0022C12.5866 19.7533 14.4857 21.9692 17.3249 21.9692C19.4257 21.9692 20.8113 20.7604 21.258 19.2169H25.102Z" fill="white"/>
    <path d="M158.019 30.0012C156.91 30.0012 155.882 29.8193 154.936 29.4555C153.99 29.0916 153.171 28.5823 152.48 27.9274C151.807 27.2907 151.316 26.5357 151.007 25.6625L154.336 24.4073C154.554 25.0986 154.981 25.6534 155.618 26.0718C156.273 26.5084 157.073 26.7267 158.019 26.7267C158.747 26.7267 159.384 26.5903 159.93 26.3174C160.493 26.0446 160.93 25.6443 161.239 25.1168C161.549 24.6074 161.703 23.9889 161.703 23.2613V19.8776L162.385 20.6963C161.876 21.5876 161.194 22.2607 160.339 22.7155C159.484 23.1703 158.511 23.3977 157.419 23.3977C156.037 23.3977 154.8 23.0793 153.708 22.4426C152.617 21.8059 151.762 20.9327 151.143 19.8231C150.525 18.7134 150.215 17.4673 150.215 16.0847C150.215 14.684 150.525 13.4378 151.143 12.3464C151.762 11.2549 152.607 10.3999 153.681 9.78135C154.754 9.14465 155.973 8.82629 157.337 8.82629C158.447 8.82629 159.42 9.06278 160.257 9.53576C161.112 9.99055 161.821 10.6545 162.385 11.5277L161.894 12.4282V9.15374H165.278V23.2613C165.278 24.5529 164.959 25.708 164.323 26.7267C163.704 27.7455 162.849 28.5459 161.758 29.128C160.684 29.7101 159.438 30.0012 158.019 30.0012ZM157.856 20.0959C158.62 20.0959 159.284 19.9322 159.848 19.6048C160.43 19.2591 160.885 18.7861 161.212 18.1858C161.539 17.5855 161.703 16.8942 161.703 16.112C161.703 15.348 161.53 14.6658 161.185 14.0654C160.857 13.4469 160.403 12.9649 159.82 12.6192C159.256 12.2736 158.602 12.1008 157.856 12.1008C157.11 12.1008 156.437 12.2736 155.836 12.6192C155.236 12.9649 154.763 13.4469 154.418 14.0654C154.09 14.6658 153.926 15.348 153.926 16.112C153.926 16.876 154.09 17.5582 154.418 18.1585C154.763 18.7589 155.227 19.2318 155.809 19.5775C156.409 19.9231 157.092 20.0959 157.856 20.0959Z" fill="#05264E"/>
    <path d="M134.64 23.998V9.15374H137.997V12.0735L137.724 11.555C138.069 10.6636 138.633 9.99055 139.416 9.53576C140.216 9.06278 141.144 8.82629 142.199 8.82629C143.29 8.82629 144.255 9.06278 145.091 9.53576C145.946 10.0087 146.61 10.6727 147.083 11.5277C147.556 12.3645 147.793 13.3378 147.793 14.4475V23.998H144.218V15.2934C144.218 14.6385 144.091 14.0745 143.836 13.6016C143.582 13.1286 143.227 12.7648 142.772 12.5101C142.335 12.2372 141.817 12.1008 141.217 12.1008C140.634 12.1008 140.116 12.2372 139.661 12.5101C139.206 12.7648 138.852 13.1286 138.597 13.6016C138.342 14.0745 138.215 14.6385 138.215 15.2934V23.998H134.64Z" fill="#05264E"/>
    <path d="M127.765 23.998V9.15368H131.34V23.998H127.765ZM127.765 7.48916V3.66895H131.34V7.48916H127.765Z" fill="#05264E"/>
    <path d="M102.557 23.998V9.15374H105.913V12.5919L105.531 12.0189C105.804 10.9456 106.349 10.1452 107.168 9.61763C107.987 9.09007 108.951 8.82629 110.061 8.82629C111.279 8.82629 112.353 9.14465 113.28 9.78135C114.208 10.4181 114.808 11.2549 115.081 12.2918L114.072 12.3736C114.527 11.1912 115.209 10.3089 116.118 9.72678C117.028 9.12646 118.074 8.82629 119.256 8.82629C120.311 8.82629 121.248 9.06278 122.067 9.53576C122.904 10.0087 123.559 10.6727 124.032 11.5277C124.505 12.3645 124.741 13.3378 124.741 14.4475V23.998H121.166V15.2934C121.166 14.6385 121.048 14.0745 120.812 13.6016C120.575 13.1286 120.248 12.7648 119.829 12.5101C119.411 12.2372 118.902 12.1008 118.301 12.1008C117.737 12.1008 117.237 12.2372 116.8 12.5101C116.364 12.7648 116.027 13.1286 115.791 13.6016C115.554 14.0745 115.436 14.6385 115.436 15.2934V23.998H111.861V15.2934C111.861 14.6385 111.743 14.0745 111.507 13.6016C111.27 13.1286 110.934 12.7648 110.497 12.5101C110.079 12.2372 109.578 12.1008 108.996 12.1008C108.432 12.1008 107.932 12.2372 107.496 12.5101C107.059 12.7648 106.722 13.1286 106.486 13.6016C106.249 14.0745 106.131 14.6385 106.131 15.2934V23.998H102.557Z" fill="#05264E"/>
    <path d="M86.3813 23.998V9.15374H89.7377V12.0735L89.4648 11.555C89.8104 10.6636 90.3744 9.99055 91.1566 9.53576C91.957 9.06278 92.8848 8.82629 93.9399 8.82629C95.0314 8.82629 95.9956 9.06278 96.8324 9.53576C97.6874 10.0087 98.3514 10.6727 98.8243 11.5277C99.2973 12.3645 99.5338 13.3378 99.5338 14.4475V23.998H95.9592V15.2934C95.9592 14.6385 95.8318 14.0745 95.5772 13.6016C95.3225 13.1286 94.9677 12.7648 94.513 12.5101C94.0764 12.2372 93.5579 12.1008 92.9576 12.1008C92.3754 12.1008 91.857 12.2372 91.4022 12.5101C90.9474 12.7648 90.5927 13.1286 90.338 13.6016C90.0833 14.0745 89.956 14.6385 89.956 15.2934V23.998H86.3813Z" fill="#05264E"/>
    <path d="M75.055 24.3255C74.0181 24.3255 73.1176 24.1526 72.3535 23.807C71.5895 23.4614 70.9983 22.9702 70.5799 22.3335C70.1615 21.6786 69.9523 20.9236 69.9523 20.0686C69.9523 19.25 70.1342 18.5224 70.498 17.8857C70.8618 17.2308 71.4258 16.685 72.1898 16.2484C72.9539 15.8118 73.918 15.5026 75.0823 15.3207L79.9394 14.5293V17.2581L75.7645 17.9675C75.055 18.0949 74.5274 18.3223 74.1818 18.6497C73.8362 18.9772 73.6633 19.4047 73.6633 19.9322C73.6633 20.4416 73.8543 20.8509 74.2364 21.1601C74.6366 21.4512 75.1278 21.5967 75.7099 21.5967C76.4557 21.5967 77.1106 21.4421 77.6746 21.1328C78.2567 20.8054 78.7024 20.3597 79.0116 19.7958C79.3391 19.2318 79.5028 18.6133 79.5028 17.9402V14.12C79.5028 13.4833 79.2481 12.9558 78.7388 12.5374C78.2476 12.1008 77.5927 11.8825 76.7741 11.8825C76.01 11.8825 75.3279 12.0917 74.7275 12.5101C74.1454 12.9103 73.7179 13.4469 73.445 14.12L70.5253 12.7011C70.8164 11.9189 71.2712 11.2458 71.8897 10.6818C72.5264 10.0997 73.2722 9.64491 74.1272 9.31747C74.9822 8.99002 75.91 8.82629 76.9105 8.82629C78.1294 8.82629 79.2027 9.05369 80.1304 9.50848C81.0582 9.94507 81.7767 10.5636 82.2861 11.364C82.8137 12.1462 83.0774 13.0649 83.0774 14.12V23.998H79.6938V21.4603L80.4579 21.4057C80.0758 22.0424 79.6211 22.5791 79.0935 23.0157C78.5659 23.4341 77.9656 23.7615 77.2925 23.998C76.6195 24.2163 75.8736 24.3255 75.055 24.3255Z" fill="#05264E"/>
    <path d="M54.3776 23.998V3.34155H57.9522V12.0735L57.461 11.555C57.8067 10.6636 58.3706 9.99055 59.1528 9.53576C59.9533 9.06278 60.881 8.82629 61.9361 8.82629C63.0276 8.82629 63.9918 9.06278 64.8286 9.53576C65.6836 10.0087 66.3476 10.6727 66.8206 11.5277C67.2935 12.3645 67.53 13.3378 67.53 14.4475V23.998H63.9554V15.2934C63.9554 14.6385 63.8281 14.0745 63.5734 13.6016C63.3187 13.1286 62.964 12.7647 62.5092 12.5101C62.0726 12.2372 61.5541 12.1008 60.9538 12.1008C60.3717 12.1008 59.8532 12.2372 59.3984 12.5101C58.9436 12.7647 58.5889 13.1286 58.3342 13.6016C58.0795 14.0745 57.9522 14.6385 57.9522 15.2934V23.998H54.3776Z" fill="#05264E"/>
    <path d="M44.9252 24.3255C43.4517 24.3255 42.1237 23.9889 40.9413 23.3158C39.777 22.6245 38.8584 21.6968 38.1853 20.5325C37.5122 19.3501 37.1757 18.0221 37.1757 16.5486C37.1757 15.0751 37.5122 13.7562 38.1853 12.5919C38.8584 11.4277 39.777 10.509 40.9413 9.83592C42.1237 9.16284 43.4517 8.82629 44.9252 8.82629C45.9803 8.82629 46.9627 9.01731 47.8723 9.39933C48.7818 9.76316 49.5641 10.2725 50.219 10.9274C50.8921 11.5641 51.3741 12.3282 51.6652 13.2195L48.5272 14.5839C48.2543 13.8381 47.7904 13.2377 47.1355 12.7829C46.4988 12.3282 45.762 12.1008 44.9252 12.1008C44.143 12.1008 43.4426 12.2918 42.8241 12.6738C42.2238 13.0558 41.7508 13.5834 41.4052 14.2565C41.0595 14.9295 40.8867 15.7027 40.8867 16.5759C40.8867 17.4491 41.0595 18.2222 41.4052 18.8953C41.7508 19.5684 42.2238 20.0959 42.8241 20.478C43.4426 20.86 44.143 21.051 44.9252 21.051C45.7802 21.051 46.5261 20.8236 47.1628 20.3688C47.7995 19.914 48.2543 19.3046 48.5272 18.5406L51.6652 19.9595C51.3741 20.7963 50.9011 21.5513 50.2463 22.2243C49.5914 22.8792 48.8091 23.3977 47.8995 23.7797C46.99 24.1435 45.9985 24.3255 44.9252 24.3255Z" fill="#05264E"/>
</svg>
